# xmcd CD database file
#
# Track frame offsets:
#	150
#	23222
#	52860
#
# Disc length: 1113 seconds
#
# Revision: 0
# Processed by: cddbd v1.5.1PL0 Copyright (c) Steve Scherf et al.
# Submitted via: CDex 1.51
#
DISCID=19045703
DTITLE=HUNGRY DAYS - 卒業のうた
DYEAR=2005
DGENRE=パンク (一般)
TTITLE0=卒業のうた
TTITLE1=君がいるだけで
TTITLE2=おまけ
EXTD=YEAR: 2005
EXTT0=
EXTT1=
EXTT2=
PLAYORDER=
